<svg width="110" height="109" viewBox="0 0 110 109" fill="none" xmlns="http://www.w3.org/2000/svg">
<path d="M55 107.367C84.8087 107.367 109 83.5703 109 54.1834C109 24.7964 84.8087 1 55 1C25.1913 1 1 24.7964 1 54.1834C1 83.5703 25.1913 107.367 55 107.367Z" fill="#F25C29" stroke="black" strokeWidth="2"/>
<path d="M55.0002 102.397C82.0212 102.397 103.953 80.8255 103.953 54.1834C103.953 27.5412 82.0212 5.96985 55.0002 5.96985C27.9793 5.96985 6.04785 27.5412 6.04785 54.1834C6.04785 80.8255 27.9793 102.397 55.0002 102.397Z" fill="white" stroke="black" strokeWidth="2"/>
<path d="M54.9999 83.5115C71.4276 83.5115 84.7714 70.3954 84.7714 54.1833C84.7714 37.9713 71.4276 24.8552 54.9999 24.8552C38.5723 24.8552 25.2285 37.9713 25.2285 54.1833C25.2285 70.3954 38.5723 83.5115 54.9999 83.5115Z" fill="#669114" stroke="black" strokeWidth="2"/>
<path d="M54.9997 80.5296C69.7547 80.5296 81.7426 68.7486 81.7426 54.1834C81.7426 39.6182 69.7547 27.8372 54.9997 27.8372C40.2447 27.8372 28.2568 39.6182 28.2568 54.1834C28.2568 68.7486 40.2447 80.5296 54.9997 80.5296Z" fill="#669114" stroke="white" strokeWidth="2"/>
<path d="M54.9999 61.6441C59.1615 61.6441 62.5618 58.3184 62.5618 54.1833C62.5618 50.0483 59.1615 46.7225 54.9999 46.7225C50.8383 46.7225 47.438 50.0483 47.438 54.1833C47.438 58.3184 50.8383 61.6441 54.9999 61.6441Z" fill="#669114" stroke="white" strokeWidth="2"/>
<line x1="28.2476" y1="53.6804" x2="81.7523" y2="53.6804" stroke="white" strokeWidth="2"/>
<line x1="39.3428" y1="67.5959" x2="70.6571" y2="67.5959" stroke="white" strokeWidth="2" strokeLinecap="round"/>
<line x1="44.3906" y1="73.5598" x2="65.6097" y2="73.5598" stroke="white" strokeWidth="2" strokeLinecap="round"/>
<line x1="39.3428" y1="67.608" x2="39.3428" y2="75.5477" stroke="white" strokeWidth="2" strokeLinecap="round"/>
<line x1="44.3906" y1="73.5719" x2="44.3906" y2="77.5357" stroke="white" strokeWidth="2" strokeLinecap="round"/>
<line x1="65.5903" y1="73.5719" x2="65.5903" y2="77.5357" stroke="white" strokeWidth="2" strokeLinecap="round"/>
<line x1="70.6382" y1="67.608" x2="70.6382" y2="75.5477" stroke="white" strokeWidth="2" strokeLinecap="round"/>
<line x1="70.6572" y1="40.7709" x2="39.3429" y2="40.7709" stroke="white" strokeWidth="2" strokeLinecap="round"/>
<line x1="65.6094" y1="34.8071" x2="44.3903" y2="34.8071" stroke="white" strokeWidth="2" strokeLinecap="round"/>
<line x1="70.6572" y1="40.7588" x2="70.6572" y2="32.8191" stroke="white" strokeWidth="2" strokeLinecap="round"/>
<line x1="65.6094" y1="34.795" x2="65.6094" y2="30.8312" stroke="white" strokeWidth="2" strokeLinecap="round"/>
<line x1="44.4097" y1="34.795" x2="44.4097" y2="30.8312" stroke="white" strokeWidth="2" strokeLinecap="round"/>
<line x1="39.3618" y1="40.7588" x2="39.3618" y2="32.8191" stroke="white" strokeWidth="2" strokeLinecap="round"/>
<path d="M29.9786 31.4585C29.5921 31.8064 29.1807 32.0429 28.7443 32.1679C28.3128 32.2884 27.8817 32.3148 27.451 32.2471C27.0212 32.1697 26.6171 32.0155 26.2387 31.7846C25.8563 31.5484 25.5298 31.2484 25.2593 30.8845C24.9769 30.5047 24.7729 30.0856 24.6471 29.6272C24.5223 29.159 24.4745 28.6885 24.5035 28.2158C24.5335 27.7333 24.6469 27.274 24.8437 26.8378C25.0414 26.3918 25.3286 25.9993 25.7051 25.6603C26.0866 25.3168 26.495 25.0875 26.9305 24.9723C27.3709 24.8527 27.806 24.8316 28.2357 24.9091C28.6655 24.9866 29.0696 25.1407 29.448 25.3716C29.8265 25.6025 30.1509 25.8999 30.4214 26.2637C30.6998 26.6382 30.9039 27.0573 31.0336 27.521C31.1594 27.9794 31.2073 28.4498 31.1773 28.9324C31.1482 29.4051 31.0329 29.8617 30.8311 30.3024C30.6343 30.7385 30.3502 31.1239 29.9786 31.4585ZM26.2998 29.9478C26.4827 30.1939 26.6944 30.4007 26.9348 30.5684C27.1752 30.736 27.4274 30.8527 27.6915 30.9186C27.9565 30.9748 28.223 30.9716 28.4908 30.9091C28.7596 30.8367 29.0154 30.6913 29.2581 30.4727C29.5058 30.2497 29.6865 29.9977 29.8002 29.7167C29.9099 29.4304 29.9615 29.1383 29.9551 28.8404C29.9447 28.5372 29.8882 28.2442 29.7855 27.9615C29.6839 27.669 29.5475 27.4077 29.3765 27.1777C29.1935 26.9316 28.9813 26.7296 28.74 26.5718C28.4996 26.4042 28.2468 26.2924 27.9818 26.2363C27.7178 26.1703 27.4513 26.1735 27.1825 26.2458C26.9147 26.3084 26.6619 26.4467 26.4241 26.6608C26.1714 26.8883 25.9902 27.1452 25.8805 27.4315C25.7718 27.708 25.7207 27.9952 25.7271 28.2931C25.7335 28.591 25.7856 28.8835 25.8833 29.1706C25.9859 29.4533 26.1248 29.7124 26.2998 29.9478Z" fill="black"/>
<path d="M39.3725 18.3029L37.333 19.2995L39.5368 24.7616L38.3059 25.3631L36.1021 19.9009L34.0625 20.8975L33.6098 19.7754L38.9198 17.1808L39.3725 18.3029Z" fill="black"/>
<path d="M50.9475 15.292L48.7128 15.6907L49.5712 21.5178L48.2225 21.7584L47.3641 15.9313L45.1294 16.33L44.953 15.1329L50.7712 14.0949L50.9475 15.292Z" fill="black"/>
<path d="M59.5153 14.1172L60.9075 14.2653L62.8811 21.6143L61.4691 21.464L60.9678 19.631L58.5017 19.3685L57.7004 21.0629L56.2884 20.9126L59.5153 14.1172ZM60.8041 18.6382L60.0862 15.6158L58.8154 18.4265L60.8041 18.6382Z" fill="black"/>
<path d="M71.9358 17.2159L73.0984 17.7515L72.9986 20.2868L74.5789 18.4334L75.7324 18.9648L73.4759 21.4733L73.4899 23.9622L77.2745 19.6532L78.6369 20.2808L73.5332 25.7287L72.4523 25.2308L72.3764 21.9225L70.1907 24.189L69.1099 23.6911L69.0637 15.8709L70.4079 16.4902L70.2837 22.4853L71.8865 20.7412L71.9358 17.2159Z" fill="black"/>
<path d="M85.1628 25.6573L86.193 26.6053L83.818 34.0258L82.7731 33.0642L83.3583 31.208L81.5334 29.5287L79.9842 30.4978L78.9393 29.5363L85.1628 25.6573ZM83.7612 30.2664L84.8128 27.2699L82.2895 28.9121L83.7612 30.2664Z" fill="black"/>
<path d="M15.353 65.974L22.1403 63.7929L23.1242 66.761C23.2265 67.0698 23.2568 67.3738 23.215 67.6732C23.1753 67.9788 23.0784 68.261 22.9244 68.5197C22.7725 68.7846 22.5794 69.0106 22.3451 69.1974C22.113 69.3905 21.8567 69.5322 21.5763 69.6223C21.2895 69.7145 20.9955 69.7531 20.6944 69.7383C20.4018 69.7278 20.1264 69.6628 19.8683 69.5436C19.6101 69.4243 19.3862 69.2592 19.1963 69.0483L17.1516 71.3998L16.6753 69.963L18.493 67.8518L18.0606 66.5473L15.7854 67.2785L15.353 65.974ZM19.2173 66.1756L19.7594 67.8109C19.8137 67.9748 19.9095 68.1044 20.0469 68.1997C20.1906 68.2929 20.3579 68.3508 20.5487 68.3731C20.7394 68.3955 20.9368 68.3739 21.1407 68.3084C21.3574 68.2387 21.5308 68.1342 21.6609 67.9948C21.7973 67.8533 21.8904 67.6979 21.94 67.5285C21.9917 67.3655 21.9915 67.2052 21.9393 67.0476L21.416 65.4691L19.2173 66.1756Z" fill="black"/>
<path d="M23.2992 79.4128L22.3062 80.1042L19.4304 76.0999L25.2572 72.0431L28.0806 75.9743L27.0875 76.6657L25.0692 73.8553L23.6658 74.8324L25.41 77.261L24.4908 77.9009L22.7467 75.4723L21.2284 76.5294L23.2992 79.4128Z" fill="black"/>
<path d="M28.9439 81.8068C29.2094 81.4667 29.5303 81.1808 29.9063 80.9493C30.2918 80.7165 30.7089 80.5576 31.1574 80.4725C31.6101 80.3821 32.0712 80.3897 32.5407 80.4953C33.0143 80.5956 33.4726 80.8135 33.9157 81.1488C34.4388 81.5447 34.8021 81.9985 35.0054 82.5104C35.214 83.0263 35.2708 83.5355 35.1758 84.0379L33.8797 83.9687C33.947 83.6866 33.9503 83.4269 33.8894 83.1893C33.8327 82.9466 33.7346 82.735 33.5952 82.5546C33.4599 82.369 33.3069 82.2115 33.136 82.0822C32.8585 81.8722 32.5727 81.7433 32.2787 81.6957C31.9901 81.6521 31.7069 81.6667 31.4292 81.7396C31.1515 81.8125 30.8922 81.9326 30.6512 82.0999C30.4156 82.2712 30.212 82.4668 30.0404 82.6866C29.8483 82.9325 29.7025 83.201 29.6028 83.4918C29.5072 83.7774 29.462 84.0638 29.4672 84.3508C29.4819 84.6366 29.5498 84.9086 29.6709 85.1668C29.8015 85.4237 29.9895 85.6451 30.2351 85.831C30.4112 85.9643 30.6125 86.0708 30.839 86.1506C31.0654 86.2304 31.305 86.2661 31.5579 86.2576C31.8107 86.2492 32.0575 86.1778 32.2981 86.0436L32.8046 87.2386C32.476 87.4311 32.108 87.5272 31.7006 87.527C31.2985 87.5307 30.9012 87.4632 30.5087 87.3242C30.1161 87.1853 29.765 86.9987 29.4554 86.7644C29.0497 86.4574 28.7421 86.0955 28.5324 85.6788C28.3268 85.2568 28.2075 84.8169 28.1744 84.3589C28.1507 83.8998 28.2023 83.4476 28.329 83.0024C28.4652 82.556 28.6702 82.1575 28.9439 81.8068Z" fill="black"/>
<path d="M48.8456 89.6902C48.8131 89.6316 48.7466 89.545 48.646 89.4305C48.5519 89.318 48.428 89.1996 48.2745 89.0756C48.1273 88.9535 47.9615 88.836 47.777 88.723C47.5943 88.6037 47.4005 88.5122 47.1955 88.4483C46.8367 88.3366 46.5459 88.3188 46.3231 88.395C46.1066 88.4732 45.9649 88.6336 45.8978 88.8762C45.8466 89.0613 45.8637 89.2261 45.949 89.3705C46.0344 89.515 46.1817 89.6614 46.3912 89.8098C46.6006 89.9583 46.866 90.131 47.1872 90.3282C47.6057 90.5763 47.9562 90.8311 48.2388 91.0925C48.5296 91.3494 48.7262 91.6325 48.8286 91.9417C48.9391 92.2466 48.937 92.6065 48.8223 93.0214C48.7218 93.3853 48.568 93.6771 48.3611 93.897C48.156 94.1104 47.9129 94.2601 47.6317 94.3458C47.3506 94.4316 47.0489 94.4659 46.7266 94.4487C46.4061 94.4252 46.0761 94.3605 45.7365 94.2548C45.397 94.1491 45.0672 94.0082 44.747 93.8322C44.4269 93.6563 44.1275 93.4556 43.8489 93.2301C43.5721 92.9983 43.3279 92.7489 43.1164 92.482L44.0176 91.525C44.0594 91.6005 44.1407 91.709 44.2616 91.8506C44.3842 91.9859 44.538 92.1343 44.7229 92.2959C44.9096 92.4511 45.1191 92.5996 45.3513 92.7412C45.5835 92.8829 45.8277 92.9936 46.084 93.0734C46.4427 93.1851 46.7318 93.2093 46.9511 93.1458C47.1704 93.0824 47.3109 92.939 47.3727 92.7155C47.4292 92.5113 47.3996 92.3287 47.284 92.1679C47.1684 92.0071 46.9908 91.8443 46.7511 91.6795C46.5131 91.5084 46.2289 91.3158 45.8983 91.102C45.5026 90.847 45.1809 90.6012 44.9332 90.3646C44.6873 90.1216 44.5256 89.8633 44.4482 89.5895C44.3708 89.3158 44.3797 89.0066 44.475 88.6619C44.6039 88.1959 44.8204 87.8404 45.1247 87.5954C45.4371 87.346 45.8044 87.2004 46.2265 87.1585C46.6504 87.1103 47.0929 87.158 47.5542 87.3016C47.8745 87.4014 48.1659 87.5303 48.4283 87.6883C48.6972 87.8483 48.9407 88.0246 49.1588 88.2174C49.3769 88.4101 49.5667 88.6044 49.7282 88.8003L48.8456 89.6902Z" fill="black"/>
<path d="M55.4532 95.9983L55.1809 88.9404L58.207 88.9257C58.5354 88.9241 58.8396 88.9889 59.1195 89.1201C59.3994 89.2513 59.6442 89.4291 59.854 89.6534C60.0705 89.8777 60.241 90.1288 60.3657 90.4065C60.4904 90.6843 60.5584 90.969 60.5696 91.2606C60.585 91.6582 60.5057 92.0364 60.3318 92.3952C60.158 92.754 59.9112 93.0468 59.5915 93.2738C59.2718 93.5007 58.8874 93.6152 58.4383 93.6174L56.7493 93.6257L56.8406 95.9915L55.4532 95.9983ZM56.7029 92.4228L58.3115 92.415C58.479 92.4142 58.628 92.3671 58.7585 92.2736C58.889 92.1802 58.9911 92.0471 59.0649 91.8744C59.1384 91.6951 59.1708 91.4928 59.1621 91.2675C59.1527 91.0223 59.0977 90.8137 58.9972 90.6419C58.9034 90.47 58.7811 90.3414 58.6304 90.2559C58.4863 90.1705 58.3305 90.1281 58.1629 90.1289L56.6147 90.1365L56.7029 92.4228Z" fill="black"/>
<path d="M70.494 93.9065C70.0012 94.0759 69.5181 94.1365 69.0448 94.0881C68.5777 94.0377 68.1402 93.9032 67.7322 93.6847C67.3283 93.4577 66.9737 93.1716 66.6684 92.8264C66.3609 92.4748 66.1288 92.0868 65.9723 91.6623C65.8089 91.219 65.7357 90.7694 65.7526 90.3134C65.7736 89.8489 65.8718 89.4107 66.0473 88.9986C66.2268 88.5782 66.4822 88.209 66.8135 87.8911C67.1487 87.5649 67.5564 87.3192 68.0365 87.1542C68.523 86.987 69.0009 86.9317 69.4702 86.9884C69.9459 87.043 70.3857 87.1837 70.7897 87.4107C71.1936 87.6376 71.5482 87.9237 71.8535 88.269C72.1587 88.6142 72.3896 88.9991 72.5461 89.4237C72.7072 89.8607 72.7805 90.3103 72.7658 90.7726C72.7489 91.2286 72.6507 91.6669 72.4711 92.0873C72.2956 92.4994 72.0391 92.8654 71.7015 93.1855C71.3703 93.5033 70.9678 93.7437 70.494 93.9065ZM67.299 91.2063C67.4048 91.4934 67.5515 91.7561 67.7389 91.9941C67.9263 92.2322 68.1413 92.4291 68.3838 92.5849C68.6303 92.7323 68.8966 92.8272 69.1827 92.8695C69.4728 92.9034 69.7727 92.8672 70.0822 92.7608C70.3981 92.6522 70.6562 92.4931 70.8565 92.2836C71.0546 92.0678 71.1966 91.8255 71.2826 91.5568C71.3663 91.2818 71.4009 90.9991 71.3863 90.7087C71.3758 90.4098 71.321 90.1262 71.2221 89.8577C71.1162 89.5705 70.9675 89.3121 70.7761 89.0825C70.5887 88.8444 70.3717 88.6517 70.1252 88.5043C69.8827 88.3485 69.6164 88.2536 69.3262 88.2197C69.0402 88.1774 68.7455 88.2083 68.4423 88.3125C68.1201 88.4233 67.86 88.5866 67.6619 88.8024C67.4679 89.0098 67.3279 89.2478 67.2419 89.5165C67.1559 89.7853 67.117 90.0659 67.1252 90.3585C67.1398 90.649 67.1977 90.9316 67.299 91.2063Z" fill="black"/>
<path d="M79.5029 89.4882L75.1201 83.8838L77.5916 81.9581C77.8487 81.7577 78.126 81.6264 78.4234 81.564C78.7261 81.4975 79.0261 81.4924 79.3235 81.5487C79.626 81.6008 79.9057 81.7047 80.1625 81.8603C80.4246 82.0118 80.6461 82.2034 80.8272 82.4349C81.0124 82.6717 81.1494 82.9333 81.2383 83.2198C81.3283 83.4969 81.361 83.7762 81.3364 84.0579C81.3118 84.3396 81.2322 84.605 81.0975 84.8539L84.0208 85.9679L82.8244 86.9001L80.2061 85.9168L79.1199 86.7632L80.5891 88.6418L79.5029 89.4882ZM78.373 85.8081L79.7347 84.7471C79.8711 84.6408 79.9609 84.5073 80.0041 84.3466C80.0432 84.1806 80.0408 84.0047 79.9967 83.8188C79.9527 83.6329 79.8648 83.4558 79.7332 83.2874C79.5932 83.1084 79.4351 82.9818 79.2588 82.9075C79.0783 82.8279 78.8995 82.7936 78.7223 82.8047C78.5504 82.8116 78.3989 82.8661 78.2677 82.9684L76.9532 83.9925L78.373 85.8081Z" fill="black"/>
<path d="M86.4331 73.5266L85.1753 75.4016L90.0299 78.7905L89.2708 79.922L84.4162 76.5332L83.1584 78.4081L82.1611 77.712L85.4358 72.8305L86.4331 73.5266Z" fill="black"/>
<path d="M90.3806 65.0714C90.3232 65.1018 90.239 65.1652 90.1279 65.2619C90.0187 65.3521 89.9045 65.472 89.7853 65.6217C89.668 65.7649 89.5557 65.9272 89.4486 66.1084C89.335 66.2876 89.2493 66.4791 89.1914 66.683C89.0902 67.0398 89.0805 67.332 89.1623 67.5596C89.2459 67.7808 89.4092 67.9301 89.6521 68.0075C89.8375 68.0666 90.0008 68.0561 90.1421 67.976C90.2833 67.896 90.4248 67.7535 90.5666 67.5486C90.7084 67.3436 90.8729 67.0834 91.06 66.7678C91.2952 66.3565 91.5388 66.0137 91.7909 65.7397C92.0383 65.4573 92.3143 65.2708 92.6188 65.1803C92.9188 65.0813 93.2765 65.0981 93.6921 65.2305C94.0565 65.3466 94.3507 65.5134 94.5749 65.7307C94.7927 65.946 94.948 66.197 95.0409 66.4837C95.1339 66.7704 95.1762 67.0757 95.168 67.3996C95.1533 67.7215 95.0981 68.0513 95.0023 68.389C94.9064 68.7267 94.7755 69.0532 94.6093 69.3685C94.4432 69.6838 94.2519 69.9771 94.0355 70.2486C93.8126 70.518 93.5714 70.7538 93.3119 70.956L92.3362 70.0093C92.41 69.9703 92.5156 69.8928 92.6531 69.7768C92.7842 69.6588 92.9275 69.5099 93.0831 69.3302C93.2322 69.1484 93.374 68.9435 93.5085 68.7154C93.6429 68.4873 93.7463 68.2458 93.8186 67.9909C93.9198 67.6341 93.9359 67.3439 93.8669 67.1204C93.7978 66.897 93.6514 66.7496 93.4277 66.6782C93.2231 66.613 93.0425 66.6354 92.8858 66.7453C92.7292 66.8551 92.5722 67.0275 92.415 67.2622C92.2514 67.4949 92.0678 67.7734 91.8643 68.0976C91.6217 68.4858 91.3862 68.7998 91.1578 69.0397C90.923 69.2775 90.6707 69.4299 90.4008 69.4967C90.1308 69.5635 89.8233 69.5419 89.478 69.4319C89.0113 69.2832 88.6521 69.0506 88.4003 68.7341C88.1439 68.4092 87.9892 68.0333 87.936 67.6065C87.8765 67.1776 87.9118 66.7337 88.0419 66.275C88.1323 65.9564 88.2524 65.6681 88.4023 65.4102C88.554 65.1459 88.7226 64.9078 88.9082 64.696C89.0938 64.4842 89.2817 64.3009 89.472 64.1461L90.3806 65.0714Z" fill="black"/>
<path d="M21.1812 34.801C16.8776 40.4865 13.5304 50.8238 15.9213 60.6442" stroke="black" strokeWidth="2"/>
<path d="M87.8096 34.801C92.1131 40.4865 95.4603 50.8238 93.0695 60.6442" stroke="black" strokeWidth="2"/>
</svg>
